 
http://img526.imageshack.us/img526/8782/rrgbannercopy.jpg
 
http://desibbrg.org/images/32173275919352631518.jpg
 
http://desibbrg.org/images/35737553379660607340.png
 
http://desibbrg.org/images/44480780924636122641.png
 
http://desibbrg.org/images/77898329130129990529.png
 
http://desibbrg.org/images/63410222425820662222.png
 
http://desibbrg.org/images/93900067360009698587.png

Media Info - 
General
Complete name : Ishaqzaade (2012) - Xvid - Pdvd Rip - AC3 - TDT.avi
IMDB : Ishaqzaade (2012) - IMDb
Format : AVI
File size : 707 MiB
Duration : 1h 49mn
Overall bit rate : 899 Kbps

Video
Codec ID : XVID
Duration : 1h 49mn
Bit rate : 793 Kbps
Width : 688 pixels
Height : 288 pixels
Display aspect ratio : 2.40:1
Frame rate : 23.976 fps
Bits/(Pixel*Frame) : 0.167
Stream size : 624 MiB (88%)

Audio
Format : AC-3
Duration : 1h 49mn
Bit rate mode : Constant
Bit rate : 96.0 Kbps
Channel(s) : 2 channels
Stream size : 75.5 MiB (11%)

Ripper : Kingfish3r 

Seeding 24x7... Extreme Seeding...


Enjoy!
